<?xml version="1.0" encoding="UTF-8" standalone="no"?>
<svg width="281px" height="437px" viewBox="0 0 281 437" version="1.1" xmlns="http://www.w3.org/2000/svg" xmlns:xlink="http://www.w3.org/1999/xlink">
    <!-- Generator: Sketch 46.2 (44496) - http://www.bohemiancoding.com/sketch -->
    <title>Group 5</title>
    <desc>Created with Sketch.</desc>
    <defs>
        <path d="M0,185.01312 L0,8 L0,8 C-5.41083001e-16,3.581722 3.581722,2.92333432e-14 8,2.84217094e-14 L8,1.67301069e-14 L259,1.67301069e-14 L259,1.59872116e-14 C263.418278,1.51755778e-14 267,3.581722 267,8 L267,185.01312 C259.820298,185.01312 254,190.740947 254,197.80658 C254,204.872213 259.820298,210.60004 267,210.60004 L267,415 C267,419.418278 263.418278,423 259,423 L8,423 C3.581722,423 5.41083001e-16,419.418278 0,415 L0,210.60004 C7.17970175,210.60004 13,204.872213 13,197.80658 C13,190.740947 7.17970175,185.01312 0,185.01312 Z" id="path-1"></path>
        <filter x="-4.3%" y="-2.2%" width="108.6%" height="105.4%" filterUnits="objectBoundingBox" id="filter-2">
            <feOffset dx="0" dy="2" in="SourceAlpha" result="shadowOffsetOuter1"></feOffset>
            <feGaussianBlur stdDeviation="3.5" in="shadowOffsetOuter1" result="shadowBlurOuter1"></feGaussianBlur>
            <feColorMatrix values="0 0 0 0 0.272108844   0 0 0 0 0.272108844   0 0 0 0 0.272108844  0 0 0 0.5 0" type="matrix" in="shadowBlurOuter1"></feColorMatrix>
        </filter>
    </defs>
    <g id="Page-1" stroke="none" stroke-width="1" fill="none" fill-rule="evenodd">
        <g id="iPhone-X" transform="translate(-20.000000, -98.000000)">
            <g id="Group-5" transform="translate(27.000000, 103.000000)">
                <g id="Combined-Shape">
                    <use fill="black" fill-opacity="1" filter="url(#filter-2)" xlink:href="#path-1"></use>
                    <use fill="#FFFFFF" fill-rule="evenodd" xlink:href="#path-1"></use>
                </g>
                <path d="M0,188 L0,8 L0,8 C-5.41083001e-16,3.581722 3.581722,-2.76100757e-14 8,-2.84217094e-14 L8,-2.49758981e-14 L259,-2.49758981e-14 L259,-2.48689958e-14 C263.418278,-2.56806295e-14 267,3.581722 267,8 L267,188 C259.820298,188 254,193.820298 254,201 L13,201 C13,193.820298 7.17970175,188 0,188 Z" id="Combined-Shape" fill="#333333"></path>
                <path d="M19,201 L32,201" id="Line" stroke="#C9C9C9" stroke-width="3" stroke-linecap="square"></path>
                <path d="M46.5,201 L61,201" id="Line" stroke="#C9C9C9" stroke-width="3" stroke-linecap="square"></path>
                <path d="M78.5,201 L93,201" id="Line" stroke="#C9C9C9" stroke-width="3" stroke-linecap="square"></path>
                <path d="M110.5,201 L125,201" id="Line" stroke="#C9C9C9" stroke-width="3" stroke-linecap="square"></path>
                <path d="M143.5,201 L158,201" id="Line" stroke="#C9C9C9" stroke-width="3" stroke-linecap="square"></path>
                <path d="M174.5,201 L189,201" id="Line" stroke="#C9C9C9" stroke-width="3" stroke-linecap="square"></path>
                <path d="M205.5,201 L220,201" id="Line" stroke="#C9C9C9" stroke-width="3" stroke-linecap="square"></path>
                <path d="M234,201 L248,201" id="Line" stroke="#C9C9C9" stroke-width="3" stroke-linecap="square"></path>
            </g>
        </g>
    </g>
</svg>